<?xml version="1.0" standalone="no"?>
<!DOCTYPE svg PUBLIC "-//W3C//DTD SVG 20010904//EN"
 "http://www.w3.org/TR/2001/REC-SVG-20010904/DTD/svg10.dtd">
<svg version="1.0" xmlns="http://www.w3.org/2000/svg"
 width="2500.000000pt" height="2500.000000pt" viewBox="0 0 2500.000000 2500.000000"
 preserveAspectRatio="xMidYMid meet">
<metadata>
Created by potrace 1.11, written by Peter Selinger 2001-2013
</metadata>
<g transform="translate(0.000000,2500.000000) scale(0.100000,-0.100000)"
fill="#000000" stroke="none">
<path d="M12110 22279 c-600 -29 -958 -56 -1034 -79 -35 -11 -123 -24 -206
-30 -184 -13 -433 -54 -530 -85 -58 -19 -114 -28 -239 -36 -97 -6 -193 -18
-235 -30 -39 -10 -120 -31 -181 -45 -60 -14 -117 -30 -126 -35 -10 -5 -62 -18
-116 -29 -54 -11 -165 -38 -248 -61 -82 -22 -172 -45 -200 -51 -27 -6 -84 -19
-125 -29 -41 -10 -113 -28 -160 -40 -47 -11 -110 -31 -140 -44 -30 -13 -73
-29 -95 -36 -21 -7 -77 -31 -122 -54 -51 -26 -104 -45 -136 -49 -30 -4 -103
-28 -163 -53 -60 -25 -156 -60 -214 -78 -58 -18 -143 -47 -190 -65 -47 -18
-116 -43 -153 -56 -38 -13 -101 -44 -140 -68 -40 -25 -94 -50 -122 -56 -30 -7
-80 -31 -123 -60 -40 -27 -92 -54 -115 -60 -23 -6 -76 -26 -117 -44 -41 -19
-93 -40 -115 -46 -22 -7 -69 -30 -104 -51 -36 -22 -87 -48 -115 -58 -106 -40
-353 -174 -414 -224 -67 -55 -117 -86 -141 -87 -8 0 -45 -20 -82 -45 -36 -24
-126 -77 -200 -117 -74 -39 -170 -100 -214 -135 -44 -35 -96 -68 -115 -73 -50
-13 -214 -122 -288 -191 -34 -32 -75 -62 -90 -66 -35 -10 -129 -75 -201 -138
-31 -28 -79 -66 -106 -84 -28 -19 -72 -55 -100 -82 -27 -26 -66 -55 -86 -63
-45 -19 -179 -113 -234 -165 -22 -21 -65 -57 -95 -80 -61 -47 -247 -220 -350
-323 -36 -38 -74 -68 -83 -68 -21 0 -176 -133 -310 -266 -23 -23 -87 -84 -142
-135 -109 -101 -173 -181 -209 -262 -12 -28 -44 -77 -70 -107 -27 -32 -50 -71
-56 -95 -6 -22 -21 -74 -34 -115 -13 -41 -36 -133 -52 -203 l-28 -129 18 -81
c9 -45 26 -128 36 -185 22 -127 56 -210 136 -332 66 -102 203 -261 256 -298
94 -64 186 -120 208 -127 14 -4 43 -18 66 -31 51 -30 109 -47 249 -75 90 -17
132 -20 230 -16 146 7 289 36 370 76 33 16 85 41 116 54 31 14 59 29 63 35 4
6 32 26 64 44 31 18 85 58 119 89 33 32 83 69 110 83 30 15 182 149 407 358
198 183 375 344 395 357 20 13 61 48 92 77 31 29 81 65 110 79 57 26 189 119
202 141 4 8 38 35 75 60 37 26 90 69 117 95 28 26 75 58 105 72 30 13 61 32
69 41 8 10 40 31 71 46 32 16 81 51 111 78 58 53 107 82 137 82 10 0 51 23 91
52 41 28 101 66 135 83 167 88 216 118 276 170 35 30 76 58 90 61 73 17 94 26
152 67 36 26 89 53 123 62 33 10 85 30 115 45 30 15 75 34 100 41 24 7 78 33
120 56 41 24 100 53 130 64 30 11 92 40 138 65 107 57 204 94 622 234 68 23
107 41 200 90 30 16 65 30 77 30 48 0 154 32 239 71 70 33 111 44 191 55 142
19 222 39 333 83 70 28 117 40 177 45 45 3 119 18 165 32 46 13 126 31 178 40
52 8 115 21 140 29 25 8 109 19 187 25 78 6 182 17 230 26 48 8 129 21 179 29
50 8 115 24 145 36 50 19 82 22 439 31 505 13 995 15 1475 5 334 -7 399 -11
455 -27 36 -10 103 -24 150 -30 47 -6 130 -19 185 -30 116 -22 236 -36 385
-45 58 -4 125 -13 150 -20 25 -8 88 -23 140 -34 52 -11 115 -27 140 -36 25 -9
81 -19 125 -22 46 -3 95 -13 116 -24 20 -10 69 -26 109 -35 42 -9 81 -25 93
-37 l20 -20 -22 -18 c-13 -11 -39 -23 -59 -29 -180 -47 -239 -65 -254 -74 -9
-6 -29 -31 -42 -56 -14 -25 -52 -73 -85 -107 -68 -72 -93 -78 -170 -43 -24 11
-76 23 -115 26 -39 3 -112 9 -163 15 -51 5 -127 9 -170 9 -43 1 -96 7 -118 15
-22 8 -87 24 -145 35 -58 10 -136 26 -175 35 -109 24 -449 36 -1055 36 -881 0
-1113 -16 -1386 -97 -45 -13 -108 -24 -140 -24 -190 -1 -374 -33 -609 -106
-27 -9 -95 -24 -150 -33 -97 -18 -212 -47 -365 -95 -41 -13 -104 -29 -140 -36
-36 -6 -78 -19 -94 -27 -63 -33 -175 -76 -243 -93 -40 -11 -94 -28 -120 -39
-106 -44 -230 -89 -264 -95 -19 -3 -70 -28 -112 -55 -46 -29 -95 -51 -120 -55
-24 -4 -72 -22 -108 -40 -36 -18 -76 -37 -90 -41 -23 -7 -121 -53 -444 -211
-92 -45 -179 -96 -205 -118 -25 -22 -55 -49 -66 -59 -12 -10 -44 -24 -71 -31
-27 -7 -73 -32 -103 -55 -30 -23 -86 -58 -125 -77 -142 -72 -220 -120 -283
-177 -35 -32 -85 -68 -111 -78 -25 -11 -57 -31 -71 -43 -14 -13 -41 -32 -60
-44 -19 -11 -48 -35 -65 -52 -16 -18 -57 -50 -89 -73 -33 -22 -86 -64 -117
-93 -32 -30 -73 -60 -92 -67 -46 -20 -150 -97 -217 -162 -65 -63 -140 -132
-355 -329 -194 -177 -306 -300 -389 -426 -85 -129 -121 -211 -145 -330 -12
-55 -28 -128 -36 -163 -20 -85 -19 -184 4 -275 11 -43 27 -117 36 -167 16 -87
25 -108 120 -280 37 -65 168 -228 202 -251 15 -9 48 -36 73 -59 25 -24 65 -53
90 -65 24 -13 60 -33 80 -46 19 -13 64 -30 100 -39 36 -8 92 -24 125 -35 104
-34 298 -72 335 -67 35 6 244 55 330 78 25 7 62 16 82 21 20 5 64 31 97 58 32
28 78 57 100 65 61 21 161 95 297 220 66 60 175 160 243 220 67 61 129 121
137 133 9 13 37 33 62 44 56 25 156 95 226 159 28 25 74 61 101 79 28 18 71
54 97 81 27 26 64 53 85 59 21 7 63 29 93 50 61 41 192 117 284 162 33 16 83
49 110 72 77 64 106 82 158 95 26 6 82 34 124 61 43 28 87 52 98 55 12 2 37 6
58 10 25 4 55 23 97 60 34 30 70 55 80 55 10 0 43 -11 74 -25 62 -27 102 -76
139 -168 12 -28 29 -61 38 -72 20 -24 79 -126 145 -250 27 -49 77 -129 112
-176 34 -47 70 -106 78 -129 9 -24 26 -58 40 -76 14 -18 50 -79 81 -136 99
-184 129 -232 187 -308 36 -48 63 -95 73 -130 17 -58 66 -114 147 -168 20 -13
37 -30 37 -37 0 -7 -17 -20 -37 -29 -21 -9 -50 -25 -64 -37 -24 -19 -30 -20
-110 -9 -57 8 -307 10 -779 8 -631 -3 -698 -5 -733 -20 -26 -12 -41 -27 -50
-50 -9 -26 -11 -799 -7 -3515 l5 -3483 26 -25 c47 -47 136 -43 169 8 13 19 15
446 17 3405 3 3355 3 3383 23 3421 24 48 66 65 125 51 25 -6 997 -10 2580 -10
1397 0 2546 0 2553 0 7 0 20 -16 28 -35 12 -30 14 -479 14 -3425 0 -2323 3
-3397 10 -3410 16 -30 43 -40 105 -40 68 0 105 29 105 82 0 18 1 258 3 533 2
499 2 500 25 543 35 65 118 175 151 199 34 26 114 144 130 193 6 19 47 77 91
128 43 52 89 109 100 127 25 40 96 95 123 95 21 0 54 -16 79 -37 9 -8 88 -50
176 -92 88 -43 174 -87 193 -98 53 -32 224 -122 331 -175 54 -26 121 -63 150
-83 29 -19 59 -35 66 -35 19 0 103 -43 166 -85 29 -19 74 -41 99 -49 25 -7 78
-36 119 -65 41 -28 89 -54 108 -57 47 -9 84 -29 142 -75 27 -21 68 -44 91 -50
59 -15 96 -34 145 -74 34 -28 53 -35 85 -35 64 0 101 29 142 110 20 39 45 80
56 91 42 42 47 110 11 155 -28 34 -111 89 -222 146 -58 29 -114 59 -125 65
-11 6 -63 32 -115 58 -52 26 -102 53 -110 60 -8 7 -39 23 -69 35 -56 22 -135
64 -161 86 -9 7 -47 26 -86 42 -39 16 -98 47 -130 70 -33 23 -81 48 -107 56
-27 8 -83 37 -125 64 -45 29 -94 53 -118 57 -52 8 -95 34 -126 77 -63 84 -46
94 194 119 101 10 208 19 239 19 31 0 83 8 115 19 50 15 103 19 339 23 363 7
377 12 391 129 7 64 -9 233 -26 271 -7 14 -27 34 -45 44 -37 19 -132 17 -370
-10 -71 -9 -155 -16 -187 -16 -31 0 -85 -9 -120 -20 -51 -16 -91 -20 -208 -20
-80 0 -261 -5 -403 -11 -142 -6 -269 -8 -282 -5 -47 12 -49 29 -46 358 2 211
-1 318 -9 342 -6 20 -30 50 -56 71 -62 51 -68 72 -54 175 10 73 10 94 -4 147
-11 43 -13 69 -7 87 18 46 39 49 215 32 419 -40 409 -40 558 -17 76 12 160 30
188 41 32 12 74 20 113 20 34 0 100 5 145 10 72 9 96 18 191 70 60 33 112 60
116 60 4 0 51 24 104 53 83 45 117 73 259 211 90 88 184 189 209 225 26 36 65
86 88 111 34 37 50 70 90 185 26 77 55 156 63 175 31 75 75 199 96 275 13 44
32 98 43 120 28 56 83 219 83 245 0 13 13 61 29 109 59 175 103 336 110 405 5
39 17 89 28 111 32 62 71 182 89 270 8 43 21 91 29 105 7 14 31 92 54 174 44
156 83 259 108 287 8 10 29 19 46 22 18 3 52 11 77 17 25 7 61 16 80 21 19 5
59 29 88 55 29 25 76 55 104 65 107 41 260 196 299 302 7 21 35 64 62 95 26
32 52 75 58 97 6 22 19 72 30 110 51 189 79 307 79 340 0 36 -46 233 -80 340
-11 33 -24 86 -30 117 -6 31 -22 72 -35 90 -13 18 -35 53 -49 78 -13 25 -36
56 -51 70 -15 14 -46 52 -70 86 -39 54 -107 120 -388 378 -97 88 -174 161
-264 249 -39 37 -75 67 -81 67 -6 0 -26 13 -44 29 -18 15 -50 36 -70 46 -21 9
-72 47 -115 84 -43 36 -97 79 -120 94 -23 15 -53 41 -65 58 -13 17 -41 40 -63
51 -22 12 -56 33 -75 48 -19 15 -51 35 -71 44 -21 10 -68 44 -105 77 -38 33
-98 75 -134 93 -105 53 -252 137 -299 173 -24 18 -50 33 -58 33 -28 0 -80 31
-139 82 -32 27 -92 66 -133 85 -41 18 -104 51 -141 73 -36 21 -79 42 -96 46
-16 4 -64 24 -107 45 -44 21 -103 43 -133 49 -37 8 -74 26 -120 60 -48 35 -84
53 -123 61 -64 13 -115 37 -150 70 -24 23 -71 113 -71 138 0 7 -14 39 -31 70
-73 131 -110 178 -201 256 -51 44 -125 113 -164 153 -39 39 -78 72 -86 72 -8
0 -37 7 -66 15 -101 30 -104 75 -4 75 42 0 66 -7 106 -29 28 -16 77 -34 109
-40 31 -6 76 -22 100 -35 23 -14 105 -46 182 -71 138 -46 284 -99 358 -130 20
-8 66 -22 101 -30 67 -16 134 -47 736 -338 96 -46 186 -88 199 -92 13 -4 85
-41 160 -83 75 -41 154 -84 176 -95 55 -27 133 -75 176 -108 19 -15 48 -31 65
-35 47 -11 79 -30 141 -85 32 -28 87 -65 123 -83 137 -68 226 -123 279 -172
31 -28 77 -63 103 -78 25 -15 52 -34 59 -43 7 -8 36 -25 64 -38 28 -12 77 -47
110 -77 33 -30 80 -68 105 -85 25 -17 56 -43 70 -58 28 -31 134 -105 213 -148
28 -15 111 -85 186 -154 75 -69 174 -160 220 -202 46 -42 109 -101 140 -131
266 -259 358 -335 482 -402 33 -17 88 -56 122 -86 74 -67 85 -71 273 -116 191
-46 322 -55 451 -32 169 30 279 63 345 103 36 21 93 54 127 73 103 57 217 163
283 264 32 48 58 94 58 101 0 8 24 44 54 81 61 76 76 119 76 218 0 48 8 86 32
148 41 108 41 193 2 323 -15 50 -32 131 -38 180 -12 88 -14 93 -88 205 -41 63
-90 129 -108 145 -18 17 -43 54 -56 82 -33 74 -208 245 -294 287 -19 10 -60
43 -90 74 -31 32 -96 94 -145 138 -50 45 -178 162 -285 260 -218 200 -290 257
-370 297 -31 14 -66 40 -78 56 -12 17 -50 49 -85 72 -34 23 -85 63 -114 88
-90 80 -163 132 -206 147 -24 8 -66 38 -97 68 -30 29 -77 68 -105 87 -27 18
-70 52 -95 75 -42 39 -127 92 -245 154 -29 15 -82 48 -118 72 -36 25 -81 48
-99 52 -21 4 -62 29 -104 65 -38 33 -99 75 -134 94 -147 77 -257 141 -292 168
-20 16 -59 36 -86 44 -28 9 -76 36 -111 64 -34 27 -75 52 -91 55 -17 3 -43 8
-59 12 -16 3 -65 29 -109 58 -52 34 -96 56 -124 60 -26 4 -75 27 -123 57 -44
27 -103 56 -130 64 -28 9 -87 36 -130 61 -44 25 -104 55 -134 65 -30 11 -91
39 -135 63 -106 57 -215 100 -461 181 -97 32 -229 81 -253 94 -11 6 -56 20
-99 30 -72 18 -189 62 -245 92 -13 7 -70 25 -128 40 -58 15 -136 40 -175 56
-91 39 -179 60 -301 74 -70 7 -119 19 -168 41 -88 38 -230 74 -331 83 -57 5
-108 18 -175 45 -129 51 -213 68 -392 80 -104 7 -171 17 -208 30 -116 41 -544
100 -730 100 -50 0 -88 7 -137 26 -58 22 -93 27 -243 34 -96 5 -247 14 -335
19 -468 30 -898 37 -1255 20z m1065 -5193 c127 -8 309 -20 405 -26 112 -7 197
-18 235 -30 33 -10 89 -23 125 -30 36 -6 108 -22 161 -36 53 -13 136 -27 185
-30 74 -6 107 -14 190 -50 56 -23 141 -50 190 -59 84 -17 214 -59 315 -104 25
-11 70 -26 100 -32 51 -10 222 -73 244 -89 6 -4 48 -24 95 -45 47 -21 93 -44
103 -53 26 -23 21 -60 -22 -168 -21 -55 -42 -124 -45 -155 -8 -66 -34 -112
-75 -133 -79 -41 -290 -229 -337 -301 -19 -29 -135 -85 -177 -85 -60 0 -244
28 -291 44 -82 28 -317 47 -436 36 -131 -13 -168 -19 -202 -36 -15 -8 -61 -21
-101 -28 -121 -23 -237 -85 -346 -185 -102 -93 -141 -145 -161 -216 -9 -31
-26 -57 -57 -86 -38 -35 -49 -40 -71 -33 -15 4 -486 10 -1047 13 -793 5 -1025
9 -1042 19 -13 7 -31 37 -44 73 -12 33 -36 79 -53 102 -17 23 -49 77 -71 119
-48 93 -150 272 -177 311 -10 15 -27 46 -37 70 -10 23 -47 80 -82 127 -34 47
-72 108 -84 135 -11 28 -38 77 -60 110 -21 33 -52 87 -69 120 -26 52 -58 104
-138 224 -25 37 -22 61 12 103 27 32 47 42 142 73 62 20 119 40 129 45 9 5 59
19 110 30 52 12 137 37 189 57 60 22 133 40 196 48 55 8 145 25 200 38 54 14
135 30 178 37 43 6 97 18 120 26 40 15 146 24 516 44 102 6 239 15 305 20 154
11 488 5 780 -14z m1177 -1555 c37 -13 70 -26 73 -31 6 -10 -6 -19 -135 -104
-52 -34 -108 -71 -125 -83 -23 -17 -73 -29 -214 -53 -143 -23 -197 -36 -246
-60 -69 -34 -100 -37 -133 -14 -26 18 -28 53 -7 95 12 23 46 44 158 100 160
79 222 101 355 123 52 9 103 21 115 28 28 15 70 27 82 24 6 -2 40 -13 77 -25z
m3161 -335 c61 -62 145 -137 186 -166 122 -89 155 -154 111 -225 -11 -18 -45
-104 -76 -191 -30 -88 -71 -202 -90 -254 -19 -52 -45 -131 -58 -175 -13 -44
-45 -134 -71 -200 -25 -66 -51 -142 -57 -170 -17 -82 -80 -228 -233 -540 -35
-71 -73 -150 -85 -175 -41 -89 -99 -175 -192 -287 -52 -62 -86 -91 -136 -119
l-67 -37 -205 -9 c-113 -4 -290 -13 -395 -18 -171 -10 -209 -9 -385 11 -128
14 -272 22 -420 24 -248 3 -311 12 -337 52 -26 39 -5 69 57 82 74 16 200 14
251 -5 25 -9 106 -19 189 -24 80 -5 260 -19 400 -31 348 -30 350 -30 442 9 43
18 92 41 110 51 18 10 49 24 69 30 53 17 146 104 159 149 5 21 34 75 65 121
30 46 60 104 66 128 7 24 34 74 61 110 26 37 51 78 54 92 3 14 18 69 34 121
76 248 90 301 99 377 6 45 17 98 25 117 8 19 33 95 55 168 42 139 49 192 55
423 3 89 9 135 24 177 20 55 32 132 52 331 13 122 39 167 97 167 29 0 47 -14
146 -114z m-2940 35 c15 -19 33 -63 47 -121 16 -64 33 -106 56 -138 63 -88 64
-108 8 -143 -32 -20 -43 -21 -172 -14 -157 7 -228 20 -259 48 -22 20 -53 95
-53 129 0 40 42 96 126 168 110 94 119 99 176 100 39 0 50 -4 71 -29z m-580
-238 c9 -9 22 -34 29 -55 10 -34 9 -42 -8 -64 -38 -51 -106 -64 -326 -64 -163
0 -203 3 -222 16 -13 8 -52 23 -87 32 -34 9 -64 22 -66 29 -6 18 36 36 102 44
159 20 275 39 325 55 115 35 218 38 253 7z m4262 -234 c71 -22 141 -46 154
-52 44 -22 53 -84 21 -147 -11 -22 -29 -82 -40 -133 -10 -50 -28 -118 -40
-149 -11 -32 -20 -69 -20 -82 0 -14 -18 -78 -39 -144 -22 -65 -52 -164 -66
-218 -15 -54 -34 -112 -42 -127 -8 -15 -25 -81 -40 -145 -14 -64 -30 -126 -36
-137 -6 -11 -18 -58 -28 -105 -9 -47 -38 -134 -63 -195 -26 -60 -54 -144 -63
-185 -8 -41 -26 -96 -39 -122 -13 -25 -53 -118 -88 -206 -36 -87 -75 -175 -88
-195 -13 -20 -40 -63 -61 -96 -75 -117 -381 -401 -432 -401 -6 0 -58 -25 -116
-56 -113 -61 -228 -96 -377 -114 -106 -13 -156 -24 -204 -45 -53 -22 -396 -22
-459 0 -24 9 -109 23 -189 31 -80 8 -165 20 -190 25 -69 16 -404 49 -500 49
-105 1 -185 25 -213 62 -19 25 -20 33 -10 90 7 37 9 133 7 231 -5 179 2 229
37 247 13 7 104 7 281 1 145 -6 391 -13 547 -17 202 -4 296 -10 324 -20 52
-18 95 -18 148 2 32 12 104 18 266 24 246 10 259 13 336 80 23 21 64 48 91 60
34 17 60 40 93 84 75 104 169 258 195 322 13 34 52 99 86 146 68 94 85 130
142 293 21 61 55 153 75 205 20 52 48 135 61 183 13 49 30 101 38 115 33 66
86 212 96 267 5 33 28 96 49 140 21 44 44 98 51 120 7 22 25 65 40 95 15 30
33 78 40 105 21 80 48 125 83 140 18 8 36 14 42 15 5 0 68 -18 140 -41z
m-3159 -3153 c22 -7 66 -16 99 -20 164 -19 206 -65 184 -202 -9 -57 -9 -91 0
-148 15 -90 3 -127 -54 -170 -66 -51 -67 -57 -64 -454 3 -342 2 -355 -16 -369
-14 -10 -31 -12 -55 -8 -19 3 -62 10 -94 14 -75 10 -92 30 -100 114 -4 34 -5
324 -4 645 3 565 4 584 22 598 24 17 34 17 82 0z m8 -1822 c9 -8 16 -25 16
-37 0 -26 -86 -137 -105 -137 -36 0 -46 83 -17 140 16 32 27 39 84 49 4 0 14
-6 22 -15z"/>
<path d="M17650 9907 c-30 -15 -61 -48 -103 -106 -57 -78 -61 -88 -65 -146 -4
-59 -2 -67 37 -133 31 -53 48 -72 73 -81 18 -7 61 -26 96 -43 73 -35 114 -35
200 2 44 19 59 33 97 89 53 81 65 110 65 162 0 51 -19 88 -88 169 -77 91 -110
110 -198 110 -54 0 -81 -5 -114 -23z"/>
<path d="M17825 8544 c-39 -9 -120 -80 -178 -156 -50 -65 -59 -83 -64 -129 -7
-69 9 -109 84 -204 89 -112 105 -120 233 -119 89 1 115 4 153 23 59 29 113 88
128 143 16 55 16 211 1 266 -26 88 -155 173 -272 178 -36 1 -74 0 -85 -2z"/>
<path d="M11784 6112 c-50 -8 -64 -14 -75 -34 -24 -45 -28 -94 -18 -199 10
-91 9 -115 -5 -162 -9 -30 -16 -66 -16 -79 0 -35 -14 -51 -38 -44 -22 7 -75
84 -87 126 -7 23 -31 79 -72 166 -21 46 -118 160 -165 194 l-41 30 -328 0
c-324 0 -329 0 -394 -25 l-65 -24 -57 22 c-56 21 -73 22 -419 22 l-360 0 -60
-31 -59 -31 -64 34 -64 34 -401 -3 c-398 -3 -401 -3 -454 -27 l-52 -23 -73 23
c-70 23 -81 24 -422 24 -430 0 -394 12 -480 -160 -33 -66 -68 -132 -77 -146
-10 -14 -26 -50 -37 -82 -39 -112 -119 -201 -149 -164 -6 7 -32 62 -60 122
-114 248 -186 379 -221 403 -34 22 -37 22 -397 22 l-363 0 -28 -24 -28 -24 -6
-194 c-3 -106 -2 -209 2 -228 5 -21 20 -45 38 -60 17 -14 45 -37 63 -51 27
-22 32 -33 31 -65 -1 -22 -2 -137 -2 -256 0 -121 -5 -235 -11 -257 -6 -24 -24
-51 -48 -72 -72 -63 -72 -61 -72 -287 l0 -204 29 -29 c18 -18 40 -29 58 -30
15 0 173 -1 350 -1 347 -1 371 2 392 50 13 27 16 429 5 528 -6 51 6 94 27 94
5 0 24 -31 42 -68 18 -37 44 -84 58 -103 14 -18 46 -74 70 -123 34 -69 50 -92
73 -101 62 -26 115 20 155 137 38 111 93 185 129 173 40 -12 47 -57 47 -295 0
-238 3 -257 48 -282 30 -18 675 -25 730 -8 63 19 69 38 72 233 3 209 -3 247
-55 303 -74 80 -73 77 -74 383 l-1 273 32 27 c31 26 116 61 147 61 9 0 39 -16
67 -35 28 -19 57 -35 63 -35 35 0 67 -77 179 -425 8 -27 28 -81 43 -120 15
-38 44 -124 64 -190 78 -248 165 -438 215 -471 20 -13 74 -15 357 -12 299 3
336 5 359 21 40 27 87 130 99 217 7 52 21 96 45 143 54 103 72 157 84 243 9
61 20 93 50 144 21 36 48 95 59 132 12 37 28 80 36 95 8 16 19 54 25 86 19
101 55 139 176 183 75 27 99 23 153 -29 56 -53 66 -81 53 -146 -6 -33 -9 -121
-6 -216 7 -209 2 -234 -49 -297 -84 -102 -80 -89 -80 -310 1 -281 -17 -268
376 -268 200 0 280 4 298 13 40 20 52 74 40 171 -10 82 -6 122 21 229 10 40
15 47 35 47 18 0 32 -13 57 -52 19 -29 41 -71 49 -93 64 -159 144 -272 215
-302 25 -10 110 -13 380 -13 317 0 352 2 388 19 22 10 51 30 64 44 l24 26 45
-35 c25 -18 63 -39 85 -45 24 -6 135 -10 276 -10 288 2 296 4 324 97 10 32 23
77 30 98 20 65 44 76 182 80 66 2 130 0 142 -5 35 -13 61 -65 69 -136 7 -73
36 -118 82 -127 15 -4 135 -7 267 -9 263 -2 261 -3 326 60 l36 34 38 -35 c21
-20 54 -41 74 -47 46 -14 819 -23 855 -9 55 21 60 44 60 274 0 227 -1 231 -57
295 -56 65 -59 83 -61 361 l-2 255 32 30 c18 17 45 40 61 52 l28 21 0 225 c-1
245 -5 266 -62 288 -15 5 -182 8 -427 6 -448 -4 -454 -5 -482 -72 -16 -40 -20
-387 -5 -428 6 -14 30 -39 55 -56 25 -18 51 -42 58 -54 9 -16 11 -91 9 -277
-2 -212 -6 -261 -19 -292 -16 -35 -135 -168 -151 -168 -4 0 -14 26 -21 58 -10
44 -21 65 -52 95 -21 20 -45 37 -52 37 -22 0 -63 54 -80 105 -8 28 -20 88 -25
135 -6 49 -30 147 -57 230 -49 154 -73 250 -74 289 0 13 -13 67 -30 120 -16
53 -36 121 -45 152 -16 62 -68 119 -108 120 -12 0 -188 0 -390 1 l-369 0 -36
-29 c-52 -41 -100 -144 -118 -251 -7 -47 -23 -113 -34 -147 -45 -138 -92 -313
-100 -379 -5 -39 -16 -88 -25 -109 -9 -21 -21 -64 -26 -95 -14 -75 -30 -104
-80 -144 -94 -76 -106 -89 -119 -128 -7 -23 -18 -44 -23 -47 -13 -8 -127 106
-143 144 -10 24 -14 85 -14 240 0 114 -5 225 -11 245 -13 50 7 92 67 137 71
54 74 64 74 276 0 213 -8 247 -62 270 -25 10 -100 14 -284 17 -138 2 -259 2
-270 0z m-2205 -532 c96 -79 98 -87 46 -233 -40 -113 -57 -148 -80 -167 -14
-11 -19 -11 -34 6 -26 27 -91 223 -91 274 0 48 26 98 68 129 36 27 48 26 91
-9z m2215 -41 c21 -16 26 -29 26 -63 0 -77 -62 -123 -103 -78 -35 39 -60 135
-40 155 15 16 91 6 117 -14z m1621 -213 c73 -166 32 -303 -80 -260 -20 8 -45
56 -45 86 0 68 61 228 87 228 8 0 25 -24 38 -54z m-2265 -377 c17 -30 9 -64
-15 -64 -22 0 -42 43 -32 69 9 22 34 20 47 -5z"/>
<path d="M15541 6110 c-43 -10 -60 -28 -71 -76 -13 -55 -12 -275 1 -353 10
-55 18 -72 56 -112 24 -26 47 -60 51 -75 5 -16 6 -144 2 -285 l-5 -256 -27
-39 c-15 -21 -37 -51 -49 -65 -11 -14 -24 -43 -29 -65 -13 -54 -12 -361 1
-407 19 -71 23 -72 384 -75 373 -4 797 13 858 34 22 8 64 30 94 50 43 28 117
52 170 54 1 0 43 38 94 85 110 102 223 246 243 312 8 27 22 65 30 86 10 23 21
91 27 174 11 156 1 264 -36 383 -12 41 -26 95 -30 118 -4 24 -25 79 -47 123
-31 62 -58 97 -124 161 -98 95 -146 128 -259 175 -144 61 -169 63 -763 62
-296 -1 -552 -5 -571 -9z m997 -578 c33 -21 69 -87 88 -162 13 -52 15 -90 11
-188 -7 -122 -17 -162 -56 -206 -41 -46 -165 -81 -208 -58 -47 25 -52 59 -50
335 l2 259 28 23 c25 22 33 24 95 18 37 -3 77 -13 90 -21z"/>
<path d="M17494 6106 c-52 -23 -59 -57 -56 -265 3 -226 8 -251 66 -290 24 -17
48 -43 54 -58 6 -16 13 -139 15 -293 5 -269 13 -332 52 -394 7 -12 18 -39 25
-61 32 -103 205 -291 338 -368 45 -27 97 -53 115 -59 47 -16 479 -22 578 -9
48 6 95 19 113 31 17 10 56 33 87 49 77 41 160 133 187 208 13 35 39 79 62
104 49 53 70 117 70 213 0 42 9 102 22 146 18 63 22 103 22 254 1 166 3 179
21 193 11 7 39 27 62 43 58 41 64 70 61 302 -3 214 -9 236 -70 257 -42 15
-668 15 -701 0 -48 -22 -52 -40 -55 -259 -4 -238 2 -270 53 -294 69 -33 72
-42 70 -253 -2 -153 -6 -196 -20 -233 -44 -110 -154 -168 -276 -143 -51 10
-122 86 -138 148 -7 28 -21 82 -31 120 -20 79 -25 276 -7 310 15 29 38 44 69
45 15 0 40 11 55 24 l28 24 0 231 0 231 -28 27 -27 28 -393 2 c-312 2 -398 0
-423 -11z"/>
<path d="M12004 3920 c-104 -7 -137 -18 -153 -48 -6 -11 -6 -178 -1 -441 7
-405 7 -425 -12 -474 -23 -59 -18 -105 13 -133 18 -16 37 -19 124 -19 87 0
106 3 124 19 28 25 27 65 -4 126 -24 47 -25 57 -25 238 0 240 -1 238 124 243
65 3 89 8 105 23 30 28 27 71 -8 107 -25 24 -38 29 -79 29 -65 0 -80 6 -97 41
-30 57 -9 139 35 139 11 0 44 -22 74 -49 38 -35 67 -52 104 -60 28 -7 58 -21
67 -30 18 -21 30 -107 45 -326 6 -82 15 -172 20 -199 21 -99 112 -251 169
-281 34 -17 237 -32 294 -21 47 9 159 111 180 164 29 71 59 290 59 432 1 166
-12 241 -53 325 -39 79 -89 127 -178 168 -56 27 -78 32 -146 32 -100 0 -126
-13 -222 -111 -39 -41 -80 -74 -90 -74 -11 0 -35 21 -55 48 -60 78 -112 123
-154 133 -44 10 -111 9 -260 -1z m810 -176 c28 -11 74 -98 100 -189 34 -124
34 -253 0 -367 -13 -45 -24 -94 -24 -108 0 -40 -20 -89 -40 -100 -10 -6 -37
-10 -60 -10 -41 0 -41 0 -72 66 l-31 66 0 262 c-1 283 -1 285 59 355 26 31 39
36 68 25z"/>
<path d="M13388 3921 c-63 -6 -82 -12 -104 -31 -25 -24 -26 -28 -19 -95 4 -38
18 -96 31 -128 24 -57 25 -60 23 -365 -2 -277 -4 -311 -20 -344 -19 -37 -25
-104 -11 -124 15 -24 54 -34 126 -34 64 0 79 3 100 23 30 26 33 48 22 139 -10
79 -1 168 19 194 20 28 42 10 92 -72 35 -58 44 -83 52 -149 9 -70 13 -83 40
-107 30 -26 37 -28 126 -28 111 0 135 14 135 76 0 30 -9 44 -51 87 -55 56 -73
84 -84 137 -4 19 -17 62 -30 95 -29 75 -51 249 -36 287 5 15 32 51 59 81 60
66 76 110 67 178 -9 61 -45 101 -130 140 -101 48 -198 57 -407 40z m257 -201
c17 -34 19 -73 5 -101 -8 -13 -21 -19 -47 -19 -48 0 -73 24 -73 69 0 52 23 81
65 81 28 0 37 -6 50 -30z"/>
<path d="M14785 3915 c-22 -8 -41 -15 -42 -15 -1 0 -43 -46 -94 -102 -56 -63
-101 -124 -116 -158 -13 -30 -33 -72 -44 -92 -29 -55 -47 -123 -54 -208 -4
-41 -13 -100 -20 -130 -18 -72 -40 -321 -31 -354 10 -41 46 -58 132 -59 69 -2
78 0 95 22 26 32 24 77 -7 136 -25 46 -27 57 -25 174 2 127 11 165 43 185 18
11 64 -8 114 -47 37 -29 81 -159 94 -277 6 -58 14 -115 17 -128 14 -58 109
-84 223 -60 51 11 76 11 117 2 36 -8 197 -11 536 -9 534 4 522 2 568 66 33 47
38 126 9 162 -30 37 -67 35 -123 -7 -34 -26 -58 -35 -105 -41 -56 -6 -61 -5
-72 16 -16 29 -15 683 1 786 7 39 9 83 5 96 -8 34 -54 50 -146 51 -131 2 -159
-36 -134 -177 15 -88 21 -727 7 -727 -5 1 -19 7 -33 15 -44 25 -67 18 -117
-35 -40 -42 -53 -50 -83 -50 -62 0 -96 53 -81 123 6 23 11 212 12 420 l2 378
-26 26 c-50 51 -218 37 -245 -20 -11 -23 -10 -38 7 -105 17 -68 20 -117 22
-432 3 -327 2 -357 -14 -382 -24 -34 -40 -40 -66 -22 -34 24 -48 63 -55 154
-17 207 -68 566 -86 600 -13 24 -13 75 1 123 19 69 -8 101 -96 111 -33 4 -64
1 -90 -9z m-20 -346 c11 -16 -4 -59 -20 -59 -21 0 -26 15 -15 44 10 27 24 33
35 15z"/>
<path d="M10277 3914 c-5 -5 -96 -9 -204 -9 l-196 0 -20 -28 c-19 -24 -22 -47
-28 -200 -8 -224 -36 -397 -64 -397 -7 0 -20 19 -29 43 -9 23 -27 73 -41 111
-21 57 -26 93 -31 205 -7 191 -12 220 -39 247 -20 20 -34 24 -80 24 -31 0 -71
-7 -90 -14 -40 -17 -43 -31 -20 -111 15 -52 15 -55 -9 -112 -13 -32 -28 -88
-32 -123 -3 -36 -11 -73 -16 -82 -14 -28 -53 -22 -81 11 -30 37 -45 95 -56
232 -11 127 -26 161 -81 183 -59 24 -103 21 -139 -10 -43 -36 -41 -77 9 -184
30 -63 40 -98 40 -135 0 -82 56 -377 86 -459 31 -81 42 -135 37 -173 -3 -23 1
-53 10 -75 13 -30 23 -39 58 -48 57 -16 107 -6 138 25 26 25 26 27 23 163 -3
135 16 283 39 306 15 16 53 -29 93 -110 37 -72 38 -80 45 -208 4 -88 11 -139
20 -150 31 -38 139 -43 203 -10 33 17 48 64 48 149 0 33 12 103 25 155 15 58
29 147 35 227 12 175 41 287 83 322 12 10 19 8 35 -9 40 -44 46 -91 48 -387
l2 -283 -25 -37 c-14 -20 -29 -47 -34 -60 -12 -32 5 -71 36 -83 34 -13 419
-20 458 -9 17 5 48 25 68 45 l38 37 40 -36 c22 -20 52 -39 67 -43 14 -4 81 -4
149 -2 l124 5 73 43 c163 97 223 193 243 387 10 101 -6 160 -56 209 -46 45
-50 79 -15 121 39 47 46 69 46 141 0 104 -23 127 -175 177 -69 22 -95 25 -224
25 -172 0 -200 -9 -241 -79 -14 -25 -31 -46 -37 -48 -7 -3 -23 13 -36 34 -52
82 -65 88 -195 91 -64 2 -121 0 -125 -4z m180 -195 c51 -48 57 -51 93 -45 21
3 45 8 53 12 14 5 48 -43 88 -126 24 -50 21 -439 -4 -486 -26 -51 -70 -81
-127 -89 -29 -4 -78 -18 -111 -31 -69 -28 -100 -24 -128 15 -16 23 -18 46 -15
221 l2 194 31 28 c27 24 37 27 96 25 59 -2 69 1 86 22 10 13 19 38 19 57 0 44
-30 64 -93 64 -42 0 -54 5 -83 34 -27 27 -34 42 -34 73 0 46 23 83 52 83 12 0
45 -23 75 -51z m587 22 c9 -10 19 -34 22 -52 10 -70 -48 -119 -100 -85 -21 13
-26 24 -26 60 0 77 62 124 104 77z m34 -344 c33 -34 40 -79 27 -184 -9 -70
-18 -102 -39 -133 -48 -72 -94 -86 -126 -38 -20 31 -28 310 -10 343 27 50 104
56 148 12z"/>
</g>
</svg>
