<svg version="1" xmlns="http://www.w3.org/2000/svg" width="1365.333" height="1365.333" viewBox="0 0 1024.000000 1024.000000"><path d="M416.1 389.1c-11.7 3.1-20.8 11.9-23.4 22.6-1.2 4.7-1.3 4.8-6.2 5.6-7.1 1.2-8 2.3-6.5 8.6 1.3 5.5 2.7 7.2 6.2 7.3 5.5.1 7.9 1 9.3 3.8 2.3 4.5 8.6 10.4 14.4 13.6 4.9 2.6 6.4 2.9 14 2.9 8.1-.1 9-.3 15.1-3.8 8.1-4.6 8.9-5.3 12.2-10.2 2.7-4.1 5.8-13.8 5.8-18.5 0-6.5-8.2-24-11.2-24-.4 0-2.3-1.4-4.2-3-3.1-2.7-8.1-4.7-15.6-6.3-1.4-.3-5.8.4-9.9 1.4zm16.6 18.4c5.4 3.6 7.8 8.8 7 15.3-.7 6.1-2.3 9.5-5 10.9-10.2 5.4-14.4 5.5-20.5.2-5.2-4.5-6.1-6.5-6.2-13.5 0-7.5 2-10.6 9.4-14.1 6.1-2.8 9.5-2.6 15.3 1.2zM259 409.3c-7.8 1.5-18.3 7.1-23.1 12.4-1.9 2.1-5.2 7-7.4 10.8l-3.9 7-.1 11.5c0 7.3.5 13.1 1.4 15.8 1.2 3.6 1.2 5.1.2 9.5-2 7.7-3.2 8.7-11.1 8.7-7.2 0-10.4 1.5-9.8 4.5.5 3.1 4.6 4.6 10.4 3.9 6.6-.8 8.4.3 13.4 7.7 4.6 6.9 4.8 8.8 1.9 13.5-1.8 3-1.9 3.7-.7 6.1 2.2 4.7 5.9 3.8 10-2.2l3.3-5 9-.6c6.6-.4 10.1-1.1 12.9-2.7 5.6-3 9.5-7.1 11.3-11.4 1.1-2.8 2.3-4 5.1-4.9 2.1-.6 4.7-2 5.9-3.1 4.1-3.8 6.8-2.7 14.6 5.7 4 4.3 7.8 8.7 8.5 9.7 1.8 2.5 4.7 2.3 8.8-.8 5.5-4.2 4.8-6.2-6.1-17.4-5.2-5.4-9.5-10.4-9.5-11.1 0-.7 1.1-2.9 2.4-4.8 1.6-2.4 2.9-6.6 3.9-12.4.8-4.9 2-9.4 2.5-9.9.6-.6 4.8-1.7 9.4-2.5 4.5-.8 8.9-2 9.6-2.6 2-1.6.9-9.4-1.6-12-2.1-2-2.2-2-7.9-.4-5.7 1.7-9.1 2.2-12.5 1.9-1-.1-3.3-2.6-5.1-5.5-3.2-5-13.3-14.7-15.3-14.7-.5 0-2.9-1.1-5.4-2.4-5.6-2.9-16.1-3.9-25-2.3zm18.5 14.8c10.1 3.8 17 11.5 19.1 21.4 1.7 8.2.6 14.7-4 22.9-5.3 9.3-12.2 12.3-15.1 6.5-2.5-4.7-8.5-10.8-12.7-13-4.7-2.4-15-3.5-20-2.1-5.8 1.6-7.3-.1-7.3-8.5 0-5.8.6-7.7 3.4-13 4-7.4 5.8-9.2 13.6-13.2 7.4-3.8 14.7-4.1 23-1zm-17.4 45.4c6.1 3.2 11.1 11.7 7.6 13.1-4.7 1.8-22.5-7.1-22.6-11.3-.1-4.1 8.4-5.1 15-1.8zm-19.9 16.4c3.3 4.1 10.5 7.8 16.5 8.4 2.9.3 6.2 1.1 7.4 1.7l2.1 1.2-2.3 2.4c-1.2 1.3-4.6 3.2-7.5 4.1-4.7 1.4-5.8 1.5-9.5.3-2.3-.8-5.2-2.3-6.6-3.3-4.5-3.6-8.9-14.8-6.6-17 1.4-1.5 4.3-.5 6.5 2.2zM353 424.6c-3 .8-6.8 2.3-8.5 3.3-2.6 1.5-3 2.3-2.8 5.6.2 2.1 1 4.9 1.9 6.3 1.7 2.6 4.2 2.7 14.4.2 2.5-.6 6.1-1.4 8-1.7 4.3-.6 6-2.6 6-7.3 0-5.9-2.2-8-8.3-7.9-2.9 0-7.7.7-10.7 1.5zM650.4 448.5c-5.3 3.6-5.1 10.5.2 12.5 4 1.5 5.3 1.2 8.5-2 2.4-2.3 2.8-3.4 2.3-5.7-1.4-5.9-6.4-8.1-11-4.8zM704.2 450.2c-.7.7-1.2 4.5-1.2 9.7 0 8.4-1.2 12.8-2.7 10.5-1.3-1.8-6.2-2.6-11.9-1.8-6.8.8-13.4 5.7-16.6 12.3-1.8 3.7-2.3 6.2-2.2 13.1 0 10.8 2.6 17.3 9.1 22.6 4.3 3.5 4.9 3.7 11.8 3.8 5.9 0 7.8-.3 9.4-1.8 2.1-1.9 2.2-1.9 3.5 0 1.1 1.4 2.7 1.9 5.9 1.9 8.1 0 7.8 1.6 7.5-36.2-.3-28.4-.5-33.5-1.8-34.3-2.1-1.4-9.4-1.2-10.8.2zm-1.8 32.3c1 3.4.6 21.2-.4 24-.8 2-1.3 2.4-2.7 1.7-1-.5-2.7-.6-3.8-.1-4.5 1.8-6.1 1-8.6-3.9-3.1-6-3.1-13-.2-19.4l2.1-4.7 6.6.2c5.6.2 6.6.5 7 2.2zM140 453c-.8.5-2.9 1-4.6 1-6 0-16.8 9-21.9 18.4-2.4 4.4-2.8 6.1-2.9 14.5-.1 8.7.2 10.2 2.8 15.6 4.6 9.4 8.6 13.7 16.8 17.8 11.5 5.8 21 5.9 32.8.4 6.3-3 14-9.8 14-12.5 0-.5.8-2 1.9-3.3 1-1.3 2.2-3.9 2.6-5.7.8-4.1 3-5.2 9.7-5.2 6.1 0 7.8-1.2 7.8-5.1 0-3.6-1.3-4.3-7.9-4.2-7 .2-8.9-.8-9.7-5.5-2-10.9-14.3-23.2-25.4-25.5-7.5-1.5-14.4-1.8-16-.7zm19.1 13c4.5 2.9 9.4 8.3 11.8 12.9 2 3.7 1 14.7-1.8 20.3-3.2 6.3-6.5 9.2-13.1 11.7s-11.1 2.6-17.9.4c-6.4-2-10.2-5.6-14.1-13.3-5.3-10.5-3.4-19 6.6-28.8 4.8-4.6 8.8-6.1 17-6.2 6.2 0 7.6.4 11.5 3zM795.5 454c-3.9 1.7-9.4 7.8-10.5 11.8-1 3.3-1 4.8.4 8.9.9 2.8 2.3 5.9 3.1 6.9 2.1 2.7 1.8 5-.8 6.7-2.5 1.6-5.7 10.4-5.7 15.6 0 7.6 8 16.2 15.1 16.2 19.3.1 22.3-1 26.3-9.7 1.4-3.1 2.6-7 2.6-8.6 0-3.5-3.3-10.3-6.8-14l-2.5-2.7 2.6-3.8c5-7.3 4.8-17.1-.6-22.7-4.5-4.7-7.1-5.9-11-4.8-1.7.5-4.3.5-5.7.1-3.3-.9-4.1-.9-6.5.1zm12.7 11.7c3.8 3.6 3.7 7.3-.4 11.9l-3.2 3.6-3.8-4.3c-2-2.4-3.8-5.2-3.8-6.2 0-2 5.4-7.7 7.3-7.7.6 0 2.4 1.2 3.9 2.7zm-.7 29.9c5.7 5.8 6 9 1.1 12.8-1.9 1.4-3.9 2.6-4.5 2.6-.5 0-2.6-1.5-4.5-3.4-4.6-4.2-4.9-8.9-1-13.5 1.4-1.7 3-3.1 3.4-3.1.5 0 3 2.1 5.5 4.6zM853.8 453.7c-6.3.4-7 .6-11.1 4.7-6.3 6.1-7.3 14.9-2.6 21.8 2.3 3.1 2.5 6.6.4 7.4-1.9.8-5.5 10.5-5.5 14.9 0 4.5 2.7 11.5 5.4 13.8 3.5 3 6.3 3.7 16.1 3.8 8.1.1 9.9-.2 13-2.1 8.2-5.1 11.5-15.3 7.5-23.5-1.2-2.5-3.3-5.3-4.6-6.2-2.8-1.8-3.1-4.5-.8-6.4 6.5-5.4 5.3-20.7-2-25.7-3.7-2.5-6.7-3-15.8-2.5zm7.5 13.1c3.3 2.9 1.2 11.2-2.9 11.2-2.6 0-8.4-5.4-8.4-7.8 0-.9 1.2-2.8 2.6-4.4 2.8-2.9 4.4-2.7 8.7 1zm-2.9 25.9c1.4 2.1 3.4 4.9 4.5 6.3 2.7 3.3 2.6 6.2-.1 8.7-4.2 3.7-7.2 3.7-11.2-.1-4.3-4-4.4-5.1-1.1-12 3.8-8.1 4.4-8.3 7.9-2.9zM405 468.7c-.8.3-1.8 1.1-2.2 1.7-.4.6-.8 11.5-.8 24.2 0 18.8.3 23.4 1.4 24.3.8.7 3.7 1.1 6.8.9l5.3-.3.5-19.5.5-19.5h11l.3 18.6c.3 21 .3 21.2 7.5 21.3 8 .1 7.7 1 7.7-20.4 0-14.4.3-19.2 1.3-19.4 4.8-1.5 6.7-1.5 8.8.3 2.3 1.8 2.4 2.5 2.7 19.2.2 9.6.5 17.9.7 18.6.5 1.7 8 2.6 10.4 1.3 2-1 2.1-1.8 2.1-21.4v-20.4l-3.2-4c-3.9-4.9-5.2-5.4-13.1-5.4-6.3 0-7 .4-10.3 5.8-1.1 1.8-1.4 1.7-5.1-1.9-3.7-3.6-4.2-3.7-10.9-3.7-4.5 0-7.7.5-9 1.4-1.6 1.2-2.1 1.3-3.5 0-1.8-1.6-6.7-2.6-8.9-1.7zM484.8 468.7c-5.4.6-6.3 2.9-3.3 8.6 1.4 2.5 2.5 5.6 2.5 6.9 0 1.3 1 4.3 2.1 6.8 1.2 2.5 2.7 6.5 3.4 9 2.3 7.6 5.8 17.4 6.8 18.7 1.3 1.7 15.8 1.8 17.5.1.7-.7 1.2-2.1 1.2-3.2 0-1.2 1.1-4.5 2.5-7.4 1.4-3 2.5-6.4 2.5-7.6 0-1.2.9-3.9 2-6 2.9-5.8 8.2-21.5 7.8-23.4-.3-1.8-7.1-3.2-11.4-2.4-2.5.4-5.8 7.4-8.9 18.7-2.6 9.1-3.7 11.6-4.9 11.2-.6-.2-1.4-1.5-1.8-2.8-4.3-14.4-7.5-23.6-8.8-25-1.8-2.1-4.3-2.7-9.2-2.2zM542.3 469.5c-2.3 1.6-2.3 1.9-2.3 25 0 23 0 23.4 2.2 24.9 2.7 1.9 5.4 2 8.8.3l2.5-1.3.5-18.9.5-19 4.5-.6c3.1-.5 5.2-.2 6.7.7 3.6 2.2 5.3 10.5 5.3 25.3 0 12.3.1 13.1 2.1 14.2 2.3 1.2 7.4.6 9.6-1.2 1-.9 1.3-5.2 1.3-18.6 0-19.6-.5-21.6-6.7-27.6-3.9-3.8-4.2-3.8-11.7-3.9-6 0-8.2.4-9.7 1.8-1.8 1.6-2 1.6-3.7.1-2.8-2.5-7.3-3.1-9.9-1.2zM608 468.9c-7.5 1.2-10.8 4.5-9.8 9.7.5 2.8 6.2 4 9.2 2 5.2-3.3 11.6-1 11.6 4.2 0 1.9-.5 2.2-4.6 2.2-5.4 0-13.8 3.6-17.4 7.5-2.2 2.4-2.5 3.5-2.5 10.6 0 7.5.2 8 3.1 11 1.7 1.7 4.7 3.4 6.5 3.8 3.7.8 12.8-.3 17.1-2 2.1-.9 3.2-.8 5 .5 3.5 2.5 7.3 2.1 8.6-.9 1.6-3.4 1.5-5.6-.3-7.9-1.2-1.5-1.5-5.3-1.5-16.8v-14.9l-4.2-4.4c-4-4-4.8-4.4-10.3-4.8-3.3-.3-8-.2-10.5.2zm11.7 32.8c.2 3.5-.2 4.5-2.6 6.6-5.3 4.4-11.3.8-9.7-5.8.8-3 5.6-5.6 9.6-5.2 2.2.2 2.5.7 2.7 4.4zM731 468.9l-2.5.7-.3 16.9c-.1 9.3.2 18.1.7 19.5.5 1.4 1.2 3.6 1.5 5 .3 1.4 2.5 4.1 4.8 6 3.8 3.1 4.7 3.4 10.7 3.4 4.7 0 7.4-.5 9.4-1.8 2.6-1.7 2.9-1.8 4-.2 1.7 2.4 7.7 3.1 10.2 1.2 1.9-1.4 2-2.6 2-24.7 0-16.1-.4-23.7-1.2-24.8-1.6-2.3-10.3-1.9-12 .6-1 1.3-1.3 6.3-1.3 19.6.1 9.8 0 18-.2 18.2-.2.2-2.5.5-5 .6-8.8.5-10.8-4.3-10.8-25 0-16.1-1.1-17.7-10-15.2zM648.7 469.6c-.4.4-.7 11.7-.7 25 0 23.6.1 24.4 2.1 25.4 3.2 1.8 9.8.3 10.4-2.3.3-1.2.4-12.6.3-25.2l-.3-23-5.5-.3c-3.1-.2-5.9 0-6.3.4zM326.5 513.1c-5 4.4-4.6 6.5 2.9 14.7 9 9.8 9.1 10.1 5.6 14.8-1.6 2.2-3 4.2-3 4.7 0 .4-1.1 2.5-2.5 4.6-1.4 2.1-3 6-3.5 8.7-.5 2.7-1.4 7.9-2.1 11.6-1.1 5.7-1 7.4.4 12.5.9 3.2 1.8 7.9 2.1 10.5.3 2.7 1.7 6.4 3.1 8.5 1.4 2.1 3.8 5.6 5.2 7.8 1.5 2.2 5.1 6 8.1 8.5s6.2 5.3 7.3 6.2c10.2 9.4 42.4 11 55.5 2.8 2.7-1.6 6.2-3.8 7.8-4.8 4.6-2.7 9.6-7.3 9.6-8.7 0-.7.7-1.8 1.5-2.5 2.1-1.7 7.5-9.8 8.7-12.9 2.4-6.2 4.8-17.9 4.8-23.2 0-3.5-1-8.6-2.5-13.1-1.4-4-2.5-8.1-2.5-9 0-2.9-10.4-17-15.7-21.4-6.2-5-16.3-10-24.2-11.9-11.2-2.7-25.3-1.7-34.6 2.5-4.1 1.8-7.7 2.9-9 2.5-1.1-.3-4-3.1-6.5-6.1-9.6-11.9-10.6-12.4-16.5-7.3zm63 24.3c11.1 3 18.3 8 25.4 17.6 2.3 3 7.1 18.8 7.1 23.3 0 2.4-2.6 11.6-4.8 17-1.6 3.8-11.1 14.2-17.2 18.6-2.1 1.6-5.6 2.8-9.9 3.4-17.6 2.5-28.8-.5-39.1-10.6-6.8-6.8-10-11.1-10.5-14.8-.3-1.9-1.1-5.9-1.6-8.9-1.3-6.9 1-19.3 4.8-26 8.9-15.6 29.1-24.2 45.8-19.6zM225.5 526.8c-3.4 2.5-8.5 11.8-8.5 15.6 0 1.9.7 2.4 3.6 2.9 5 .8 6 .2 9.4-6.1 2.7-5 2.9-6 1.9-8.5-.7-1.5-2-3.2-3-3.7-2.1-1.2-2.1-1.2-3.4-.2zM210.5 550c-1.4 1.5-3.1 2-7.3 2-6.5 0-13.1 3.3-17.7 8.8-2.6 3.1-3 4.5-3.3 10.7-.6 10.3 3.3 16.6 12.6 20.6 9.4 4.1 19.7.7 25.7-8.4 2.4-3.4 2.8-5.2 2.8-10.9 0-4.5-.5-7.5-1.7-9.2-1.9-3-2-4.9-.4-7.6 1.1-1.7.8-2.4-1.7-5-3.3-3.5-6.4-3.8-9-1zm-5.6 14c.5 0 2 1.1 3.5 2.5 2 1.8 2.6 3.4 2.6 6.3 0 5.6-2.7 8.7-7.7 8.7-7.4 0-11.9-5.3-9.4-11.3 1.4-3.2 7-7.4 8.9-6.7.8.3 1.7.5 2.1.5z"/></svg>